<svg width="14" height="14" viewBox="0 0 14 14" fill="none" xmlns="http://www.w3.org/2000/svg">
<g clip-path="url(#clip0_30_26)">
<path d="M6.53917 12.25L12.25 6.53917V7.70584C12.25 8.015 12.1275 8.3125 11.9058 8.52834L7.36167 13.0725C6.90667 13.5275 6.16583 13.5275 5.71083 13.0725L2.08833 9.45C1.63333 8.995 1.63333 8.25417 2.08833 7.79917L6.53917 12.25Z" fill="white"/>
<path d="M7.36167 10.1558C7.13417 10.3833 6.83667 10.5 6.53917 10.5C6.24167 10.5 5.94417 10.3833 5.71667 10.1558L2.09417 6.53333C1.63917 6.07833 1.63917 5.3375 2.09417 4.8825L6.63833 0.338333C6.85417 0.1225 7.15167 0 7.46083 0H11.0833C11.725 0 12.25 0.525 12.25 1.16667V4.78917C12.25 5.09833 12.1275 5.39583 11.9058 5.61167L7.36167 10.1558ZM11.0833 1.16667H7.46083L2.91667 5.71083L6.53917 9.33333L11.0833 4.78917V1.16667Z" fill="white"/>
<path d="M9.77083 3.20833C9.36813 3.20833 9.04167 2.88187 9.04167 2.47917C9.04167 2.07646 9.36813 1.75 9.77083 1.75C10.1735 1.75 10.5 2.07646 10.5 2.47917C10.5 2.88187 10.1735 3.20833 9.77083 3.20833Z" fill="white"/>
</g>
<defs>
<clipPath id="clip0_30_26">
<rect width="14" height="14" fill="white" transform="matrix(-1 0 0 1 14 0)"/>
</clipPath>
</defs>
</svg>
